<?xml version="1.0" standalone="no"?>
<!DOCTYPE svg PUBLIC "-//W3C//DTD SVG 20010904//EN"
 "http://www.w3.org/TR/2001/REC-SVG-20010904/DTD/svg10.dtd">
<svg version="1.0" xmlns="http://www.w3.org/2000/svg"
 width="360.000000pt" height="360.000000pt" viewBox="0 0 360.000000 360.000000"
 preserveAspectRatio="xMidYMid meet">

<g transform="translate(0.000000,360.000000) scale(0.100000,-0.100000)"
fill="#000000" stroke="none">
<path d="M1700 3134 c-159 -34 -304 -141 -410 -302 -124 -189 -212 -523 -196
-746 16 -240 130 -468 311 -628 l36 -31 69 24 70 24 0 85 0 86 -73 74 c-40 41
-87 103 -105 136 -27 53 -33 75 -38 160 -15 219 42 419 190 666 81 135 71 127
97 93 47 -61 186 -198 254 -250 114 -87 250 -145 337 -145 39 0 50 -33 51
-150 1 -117 -11 -156 -108 -350 -56 -112 -84 -155 -119 -188 l-46 -42 0 -88 0
-87 59 -21 60 -21 53 64 c314 378 386 905 181 1307 -37 71 -65 109 -127 171
-45 44 -104 93 -133 108 -115 61 -275 81 -413 51z"/>
<path d="M1764 1970 c-49 -11 -97 -49 -84 -65 41 -49 141 -58 208 -19 l45 27
-24 19 c-44 35 -98 49 -145 38z m91 -55 c0 -11 -79 -19 -102 -11 -8 3 -11 11
-8 16 8 14 110 9 110 -5z"/>
<path d="M1275 1320 c-44 -27 -127 -77 -184 -112 -255 -155 -384 -344 -398
-585 l-6 -93 1112 0 1111 0 0 59 c0 159 -67 323 -182 446 -92 98 -134 130
-325 241 -49 28 -105 62 -126 74 l-38 23 21 -41 c26 -49 21 -88 -16 -132 -83
-98 -329 -157 -548 -131 -269 31 -420 141 -357 261 11 22 20 40 18 39 -1 0
-38 -23 -82 -49z"/>
</g>
</svg>
